<svg xmlns="http://www.w3.org/2000/svg" width="53.183" height="53.183" viewBox="0 0 53.183 53.183"><path d="M0,0H53.183V53.183H0Z" fill="rgba(0,0,0,0)" stroke="#000" stroke-width="0"/><path d="M25.375,3,1,21.614l2.681,3.523L7.648,22.1V42.887H43.1V22.1l3.967,3.014,2.681-3.5Zm13.3,35.455H12.08V18.733l13.3-10.149,13.3,10.149ZM18.728,27.375a2.216,2.216,0,1,1-2.216-2.216A2.222,2.222,0,0,1,18.728,27.375Zm6.648-2.216a2.216,2.216,0,1,1-2.216,2.216A2.222,2.222,0,0,1,25.375,25.159Zm6.648,2.216a2.216,2.216,0,1,1,2.216,2.216A2.222,2.222,0,0,1,32.023,27.375Z" transform="translate(1.216 3.648)" fill="#e1e1e1"/></svg>