<svg xmlns="http://www.w3.org/2000/svg" width="50" height="50" viewBox="0 0 50 50"><path d="M25,8A25,25,0,1,0,50,33,25,25,0,0,0,25,8Zm0,9.677a8.871,8.871,0,1,1-8.871,8.871A8.871,8.871,0,0,1,25,17.677Zm0,34.677A19.317,19.317,0,0,1,10.232,45.48a11.239,11.239,0,0,1,9.929-6.028,2.466,2.466,0,0,1,.716.111,13.347,13.347,0,0,0,4.123.7,13.3,13.3,0,0,0,4.123-.7,2.466,2.466,0,0,1,.716-.111,11.239,11.239,0,0,1,9.929,6.028A19.317,19.317,0,0,1,25,52.355Z" transform="translate(0 -8)" fill="#e1e1e1" stroke="#e1e1e1" stroke-width="0"/></svg>